<mxfile host="65bd71144e">
    <diagram id="tqNhv57Mfm5agJ1OMy2b" name="Page-1">
        <mxGraphModel dx="1958" dy="1730" grid="1" gridSize="10" guides="1" tooltips="1" connect="1" arrows="1" fold="1" page="1" pageScale="1" pageWidth="827" pageHeight="1169" math="0" shadow="0">
            <root>
                <mxCell id="0"/>
                <mxCell id="1" parent="0"/>
                <mxCell id="2" value="" style="rounded=0;whiteSpace=wrap;html=1;fillColor=#F0F0F0;" vertex="1" parent="1">
                    <mxGeometry x="-326" y="-70" width="1480" height="750" as="geometry"/>
                </mxCell>
                <mxCell id="3" value="" style="whiteSpace=wrap;html=1;aspect=fixed;fillColor=#F0F0F0;strokeColor=#1D1D1D;" vertex="1" parent="1">
                    <mxGeometry x="10" y="30" width="670" height="670" as="geometry"/>
                </mxCell>
                <mxCell id="22" style="html=1;exitX=0.5;exitY=0.5;exitDx=0;exitDy=0;exitPerimeter=0;entryX=0.05;entryY=0.714;entryDx=0;entryDy=0;entryPerimeter=0;edgeStyle=orthogonalEdgeStyle;strokeColor=#000000;" edge="1" parent="1" source="4" target="7">
                    <mxGeometry relative="1" as="geometry">
                        <Array as="points">
                            <mxPoint x="30" y="170"/>
                            <mxPoint x="30" y="86"/>
                        </Array>
                    </mxGeometry>
                </mxCell>
                <mxCell id="23" style="edgeStyle=orthogonalEdgeStyle;html=1;exitX=0.5;exitY=0.5;exitDx=0;exitDy=0;exitPerimeter=0;entryX=0;entryY=0.5;entryDx=0;entryDy=0;strokeColor=#000000;" edge="1" parent="1" source="4" target="8">
                    <mxGeometry relative="1" as="geometry"/>
                </mxCell>
                <mxCell id="4" value="Actor" style="shape=umlActor;verticalLabelPosition=bottom;verticalAlign=top;html=1;outlineConnect=0;strokeColor=#1D1D1D;fillColor=#F0F0F0;" vertex="1" parent="1">
                    <mxGeometry x="-95" y="140" width="30" height="60" as="geometry"/>
                </mxCell>
                <mxCell id="31" style="edgeStyle=orthogonalEdgeStyle;shape=arrow;html=1;exitX=0.5;exitY=0;exitDx=0;exitDy=0;exitPerimeter=0;entryX=0.375;entryY=0.645;entryDx=0;entryDy=0;entryPerimeter=0;strokeColor=#000000;" edge="1" parent="1" source="5" target="21">
                    <mxGeometry relative="1" as="geometry"/>
                </mxCell>
                <mxCell id="32" style="edgeStyle=orthogonalEdgeStyle;html=1;exitX=0.5;exitY=0.5;exitDx=0;exitDy=0;exitPerimeter=0;entryX=0.022;entryY=0.664;entryDx=0;entryDy=0;entryPerimeter=0;strokeColor=#000000;" edge="1" parent="1" source="5" target="10">
                    <mxGeometry relative="1" as="geometry">
                        <Array as="points">
                            <mxPoint x="20" y="470"/>
                            <mxPoint x="20" y="327"/>
                        </Array>
                    </mxGeometry>
                </mxCell>
                <mxCell id="33" style="edgeStyle=orthogonalEdgeStyle;html=1;exitX=0.5;exitY=0.5;exitDx=0;exitDy=0;exitPerimeter=0;entryX=0;entryY=0.5;entryDx=0;entryDy=0;strokeColor=#000000;" edge="1" parent="1" source="5" target="11">
                    <mxGeometry relative="1" as="geometry">
                        <Array as="points">
                            <mxPoint x="-85" y="490"/>
                            <mxPoint x="29" y="490"/>
                            <mxPoint x="29" y="510"/>
                        </Array>
                    </mxGeometry>
                </mxCell>
                <mxCell id="5" value="Actor" style="shape=umlActor;verticalLabelPosition=bottom;verticalAlign=top;html=1;outlineConnect=0;strokeColor=#1D1D1D;fillColor=#F0F0F0;" vertex="1" parent="1">
                    <mxGeometry x="-100" y="440" width="30" height="60" as="geometry"/>
                </mxCell>
                <mxCell id="7" value="" style="ellipse;whiteSpace=wrap;html=1;strokeColor=#1D1D1D;fillColor=#F0F0F0;" vertex="1" parent="1">
                    <mxGeometry x="120" y="50" width="90" height="50" as="geometry"/>
                </mxCell>
                <mxCell id="29" style="edgeStyle=orthogonalEdgeStyle;shape=arrow;html=1;exitX=1;exitY=0;exitDx=0;exitDy=0;entryX=0.075;entryY=0.761;entryDx=0;entryDy=0;entryPerimeter=0;strokeColor=#000000;" edge="1" parent="1" source="8" target="17">
                    <mxGeometry relative="1" as="geometry"/>
                </mxCell>
                <mxCell id="8" value="" style="ellipse;whiteSpace=wrap;html=1;strokeColor=#1D1D1D;fillColor=#F0F0F0;" vertex="1" parent="1">
                    <mxGeometry x="115" y="120" width="90" height="60" as="geometry"/>
                </mxCell>
                <mxCell id="28" style="edgeStyle=orthogonalEdgeStyle;shape=arrow;html=1;exitX=0;exitY=0.5;exitDx=0;exitDy=0;entryX=1;entryY=0.5;entryDx=0;entryDy=0;strokeColor=#000000;" edge="1" parent="1" source="9" target="8">
                    <mxGeometry relative="1" as="geometry"/>
                </mxCell>
                <mxCell id="34" style="edgeStyle=orthogonalEdgeStyle;html=1;exitX=0;exitY=1;exitDx=0;exitDy=0;entryX=1;entryY=0.5;entryDx=0;entryDy=0;strokeColor=#000000;shape=arrow;" edge="1" parent="1" source="9" target="10">
                    <mxGeometry relative="1" as="geometry"/>
                </mxCell>
                <mxCell id="35" style="edgeStyle=orthogonalEdgeStyle;html=1;exitX=0.5;exitY=1;exitDx=0;exitDy=0;strokeColor=#000000;shape=arrow;" edge="1" parent="1" source="9" target="19">
                    <mxGeometry relative="1" as="geometry"/>
                </mxCell>
                <mxCell id="9" value="" style="ellipse;whiteSpace=wrap;html=1;strokeColor=#1D1D1D;fillColor=#F0F0F0;" vertex="1" parent="1">
                    <mxGeometry x="370" y="139" width="100" height="60" as="geometry"/>
                </mxCell>
                <mxCell id="10" value="" style="ellipse;whiteSpace=wrap;html=1;strokeColor=#1D1D1D;fillColor=#F0F0F0;" vertex="1" parent="1">
                    <mxGeometry x="120" y="280" width="130" height="70" as="geometry"/>
                </mxCell>
                <mxCell id="11" value="" style="ellipse;whiteSpace=wrap;html=1;strokeColor=#1D1D1D;fillColor=#F0F0F0;" vertex="1" parent="1">
                    <mxGeometry x="128.75" y="480" width="100" height="60" as="geometry"/>
                </mxCell>
                <mxCell id="14" value="see post" style="text;strokeColor=none;fillColor=none;align=left;verticalAlign=top;spacingLeft=4;spacingRight=4;overflow=hidden;rotatable=0;points=[[0,0.5],[1,0.5]];portConstraint=eastwest;whiteSpace=wrap;html=1;fontColor=#1A1A1A;" vertex="1" parent="1">
                    <mxGeometry x="130" y="64" width="60" height="22" as="geometry"/>
                </mxCell>
                <mxCell id="15" value="add post" style="text;strokeColor=none;fillColor=none;align=left;verticalAlign=top;spacingLeft=4;spacingRight=4;overflow=hidden;rotatable=0;points=[[0,0.5],[1,0.5]];portConstraint=eastwest;whiteSpace=wrap;html=1;fontColor=#1A1A1A;" vertex="1" parent="1">
                    <mxGeometry x="130" y="139" width="60" height="22" as="geometry"/>
                </mxCell>
                <mxCell id="17" value="" style="ellipse;whiteSpace=wrap;html=1;strokeColor=#1D1D1D;fillColor=#F0F0F0;" vertex="1" parent="1">
                    <mxGeometry x="285" y="30" width="105" height="60" as="geometry"/>
                </mxCell>
                <mxCell id="16" value="edit post" style="text;strokeColor=none;fillColor=none;align=left;verticalAlign=top;spacingLeft=4;spacingRight=4;overflow=hidden;rotatable=0;points=[[0,0.5],[1,0.5]];portConstraint=eastwest;whiteSpace=wrap;html=1;fontColor=#1A1A1A;" vertex="1" parent="1">
                    <mxGeometry x="307.5" y="49" width="60" height="22" as="geometry"/>
                </mxCell>
                <mxCell id="18" value="see all user" style="text;strokeColor=none;fillColor=none;align=left;verticalAlign=top;spacingLeft=4;spacingRight=4;overflow=hidden;rotatable=0;points=[[0,0.5],[1,0.5]];portConstraint=eastwest;whiteSpace=wrap;html=1;fontColor=#1A1A1A;" vertex="1" parent="1">
                    <mxGeometry x="142.5" y="299.5" width="85" height="31" as="geometry"/>
                </mxCell>
                <mxCell id="19" value="add user" style="text;strokeColor=none;fillColor=none;align=left;verticalAlign=top;spacingLeft=4;spacingRight=4;overflow=hidden;rotatable=0;points=[[0,0.5],[1,0.5]];portConstraint=eastwest;whiteSpace=wrap;html=1;fontColor=#1A1A1A;" vertex="1" parent="1">
                    <mxGeometry x="143.75" y="494.5" width="85" height="31" as="geometry"/>
                </mxCell>
                <mxCell id="20" value="admin" style="text;strokeColor=none;fillColor=none;align=left;verticalAlign=top;spacingLeft=4;spacingRight=4;overflow=hidden;rotatable=0;points=[[0,0.5],[1,0.5]];portConstraint=eastwest;whiteSpace=wrap;html=1;fontColor=#1A1A1A;" vertex="1" parent="1">
                    <mxGeometry x="-110" y="500" width="85" height="31" as="geometry"/>
                </mxCell>
                <mxCell id="21" value="user" style="text;strokeColor=none;fillColor=none;align=left;verticalAlign=top;spacingLeft=4;spacingRight=4;overflow=hidden;rotatable=0;points=[[0,0.5],[1,0.5]];portConstraint=eastwest;whiteSpace=wrap;html=1;fontColor=#1A1A1A;" vertex="1" parent="1">
                    <mxGeometry x="-100" y="200" width="40" height="31" as="geometry"/>
                </mxCell>
                <mxCell id="25" value="authentication" style="text;strokeColor=none;fillColor=none;align=left;verticalAlign=top;spacingLeft=4;spacingRight=4;overflow=hidden;rotatable=0;points=[[0,0.5],[1,0.5]];portConstraint=eastwest;whiteSpace=wrap;html=1;fontColor=#1A1A1A;" vertex="1" parent="1">
                    <mxGeometry x="375" y="158" width="90" height="22" as="geometry"/>
                </mxCell>
            </root>
        </mxGraphModel>
    </diagram>
</mxfile>